# xmcd CD database file
#
# Track frame offsets:
#	150
#	32375
#	51988
#	63112
#	80396
#	117182
#	129047
#	140558
#	166145
#	193282
#	206355
#
# Disc length: 3037 seconds
#
# Revision: 0
# Processed by: cddbd v1.5.2PL0 Copyright (c) Steve Scherf et al.
# Submitted via: CDex 1.51
#
DISCID=8c0bdb0b
DTITLE=Bob Downes - Mixed Bag
DYEAR=2012
DGENRE=Jazz
TTITLE0=Borneo Breeze
TTITLE1=In Rio de Janeiro
TTITLE2=A Touch of Samba
TTITLE3=Jamaican Jump Up
TTITLE4=Lola
TTITLE5=Going East
TTITLE6=Seashore
TTITLE7=Shriek Out
TTITLE8=Shimmer
TTITLE9=The Devil
TTITLE10=Eruption
EXTD=YEAR: 2012
EXTT0=
EXTT1=
EXTT2=
EXTT3=
EXTT4=
EXTT5=
EXTT6=
EXTT7=
EXTT8=
EXTT9=
EXTT10=
PLAYORDER=
